<?xml version="1.0" encoding="utf-8"?>
<!-- Generator: Adobe Illustrator 16.0.0, SVG Export Plug-In . SVG Version: 6.00 Build 0)  -->
<!DOCTYPE svg PUBLIC "-//W3C//DTD SVG 1.1//EN" "http://www.w3.org/Graphics/SVG/1.1/DTD/svg11.dtd">
<svg version="1.1" id="Layer_1" xmlns="http://www.w3.org/2000/svg" xmlns:xlink="http://www.w3.org/1999/xlink" x="0px" y="0px"
	 width="94.125px" height="19.547px" viewBox="0 0 94.125 19.547" enable-background="new 0 0 94.125 19.547" xml:space="preserve">
<rect fill="#2E364D" width="94.125" height="19.547"/>
<path opacity="0.2" fill="#DADADA" d="M88.855,19.547c1.668-1.904,2.679-4.397,2.679-7.127c0-5.979-4.848-10.826-10.826-10.826
	c-5.977,0-10.824,4.848-10.824,10.826c0,2.729,1.011,5.222,2.678,7.126 M82.709,18.389c-0.32,0.063-0.422-0.135-0.422-0.305v-1.732
	c0-0.59-0.207-0.973-0.434-1.17c1.406-0.154,2.885-0.689,2.885-3.115c0-0.689-0.248-1.254-0.65-1.695
	c0.064-0.16,0.281-0.803-0.063-1.672c0,0-0.529-0.168-1.736,0.646c-0.504-0.139-1.045-0.207-1.582-0.211
	c-0.537,0.004-1.076,0.072-1.582,0.213c-1.205-0.816-1.734-0.646-1.734-0.646c-0.344,0.869-0.129,1.512-0.061,1.67
	c-0.404,0.441-0.652,1.006-0.652,1.695c0,2.42,1.475,2.961,2.877,3.121c-0.182,0.158-0.344,0.436-0.4,0.844
	c-0.361,0.162-1.273,0.441-1.838-0.525c0,0-0.334-0.607-0.967-0.65c0,0-0.617-0.008-0.045,0.385c0,0,0.416,0.193,0.701,0.924
	c0,0,0.365,1.127,2.123,0.744v1.176c0,0.166-0.102,0.361-0.416,0.305c-2.51-0.834-4.32-3.203-4.32-5.992
	c0-3.488,2.828-6.314,6.314-6.314c3.488,0,6.316,2.826,6.316,6.314C87.024,15.186,85.215,17.551,82.709,18.389z"/>
</svg>
